<svg width="23" height="23" viewBox="0 0 23 23" fill="none" xmlns="http://www.w3.org/2000/svg">
<path fill-rule="evenodd" clip-rule="evenodd" d="M11.5 23C17.8513 23 23 17.8513 23 11.5C23 5.14873 17.8513 0 11.5 0C5.14873 0 0 5.14873 0 11.5C0 17.8513 5.14873 23 11.5 23ZM10.6269 2.92064H13.2938V4.25258H14.8206C14.9652 4.25258 15.1027 4.26017 15.2329 4.27422C15.7683 4.36117 16.2171 4.58177 16.5789 4.9364C16.9404 5.29103 17.1215 5.69996 17.1215 6.1628V8.52903H13.9306V7.44349H13.2938V7.44844H10.6269V7.44349H9.76272V10.2437H15.4284C15.9782 10.3739 16.4126 10.6344 16.7308 11.0251C16.9332 11.2715 17.0566 11.5388 17.0998 11.8282C17.1143 11.9151 17.1215 12.0017 17.1215 12.0886V17.5375C17.1215 18.0733 16.8971 18.5251 16.4487 18.8942C15.9999 19.2632 15.4573 19.4478 14.8206 19.4478H13.2938V20.6594H10.6269V19.4478H8.87234C8.23522 19.4478 7.69265 19.2632 7.24423 18.8942C6.79544 18.5251 6.57142 18.0729 6.57142 17.5375V14.5202H9.76272V16.2569H13.9306V13.457H8.87234C8.06171 13.457 7.42496 13.1749 6.96212 12.6103C6.7738 12.3791 6.65078 12.1254 6.59307 11.8506C6.57864 11.7496 6.57142 11.6482 6.57142 11.5468V6.1628C6.57142 5.69996 6.75215 5.29103 7.114 4.9364C7.47546 4.58177 7.93147 4.36117 8.48164 4.27422C8.61188 4.25979 8.74211 4.25258 8.87234 4.25258H10.6269V2.92064Z" fill="#2AFAA5"/>
</svg>
