<svg width="31" height="31" viewBox="0 0 31 31" fill="none" xmlns="http://www.w3.org/2000/svg">
<path d="M15.5 0C6.9404 0 0 6.9404 0 15.5C0 24.0596 6.9404 31 15.5 31C24.0596 31 31 24.0596 31 15.5C31 6.9404 24.0596 0 15.5 0ZM16.6071 22.9732C16.6071 23.1254 16.4826 23.25 16.3304 23.25H14.6696C14.5174 23.25 14.3929 23.1254 14.3929 22.9732V13.5625C14.3929 13.4103 14.5174 13.2857 14.6696 13.2857H16.3304C16.4826 13.2857 16.6071 13.4103 16.6071 13.5625V22.9732ZM15.5 11.0714C15.0654 11.0626 14.6516 10.8837 14.3474 10.5732C14.0432 10.2627 13.8728 9.84538 13.8728 9.41071C13.8728 8.97604 14.0432 8.55869 14.3474 8.24821C14.6516 7.93774 15.0654 7.75887 15.5 7.75C15.9346 7.75887 16.3484 7.93774 16.6526 8.24821C16.9568 8.55869 17.1272 8.97604 17.1272 9.41071C17.1272 9.84538 16.9568 10.2627 16.6526 10.5732C16.3484 10.8837 15.9346 11.0626 15.5 11.0714Z" fill="#393232"/>
</svg>
