<svg width="64" height="64" viewBox="0 0 64 64" fill="none" xmlns="http://www.w3.org/2000/svg">
<circle cx="32" cy="32" r="32" fill="#FA821F"/>
<path d="M26.7895 24.9V31.5L17 23.25L26.7895 15V21.6H34.9474C38.4091 21.6 41.7291 22.9907 44.177 25.4662C46.6248 27.9417 48 31.2991 48 34.8C48 38.3009 46.6248 41.6583 44.177 44.1338C41.7291 46.6093 38.4091 48 34.9474 48H20.2632V44.7H34.9474C37.5437 44.7 40.0337 43.657 41.8696 41.8004C43.7055 39.9437 44.7368 37.4256 44.7368 34.8C44.7368 32.1744 43.7055 29.6563 41.8696 27.7996C40.0337 25.943 37.5437 24.9 34.9474 24.9H26.7895Z" fill="white"/>
</svg>
